<svg width="184" height="119" viewBox="0 0 184 119" fill="none" xmlns="http://www.w3.org/2000/svg">
<path d="M33.5786 38.6168C32.2909 37.2117 30.8849 35.9198 29.3762 34.7552C27.7634 33.5058 26.1733 32.3019 24.4697 31.098C22.766 29.8941 20.6762 28.2359 19.0407 26.9865C17.4972 25.8216 16.0536 24.5299 14.7248 23.1249C13.5581 21.8608 12.5997 20.4193 11.8854 18.8544C11.2191 17.2809 10.8791 15.5885 10.8859 13.8797C10.8715 12.7487 11.0324 11.6223 11.3629 10.5406C11.7479 9.39226 12.3239 8.31711 13.0666 7.36042C13.8652 6.41059 14.8267 5.61063 15.906 4.99802C17.1256 4.36386 18.484 4.04376 19.8585 4.06669C21.7884 3.92236 23.7122 4.41728 25.3329 5.47505C26.43 6.30242 27.3363 7.35599 27.9906 8.56434C28.5812 9.65468 29.1263 10.6996 29.5579 11.6309C29.7052 12.0477 29.9795 12.4077 30.3422 12.6603C30.7049 12.913 31.1377 13.0455 31.5796 13.0393C31.8594 13.0591 32.1403 13.0591 32.4201 13.0393C32.7771 12.9954 33.1234 12.8877 33.4423 12.7213C33.7931 12.5532 34.0857 12.2843 34.2827 11.9489C34.5535 11.5474 34.6888 11.0699 34.6689 10.586C34.6627 9.75958 34.9437 8.95666 35.4639 8.31447C35.973 7.66611 36.2526 6.86722 36.259 6.04293C36.2441 5.51905 36.107 5.00589 35.8585 4.54444C35.61 4.08299 35.2571 3.68602 34.8279 3.38523C33.7406 2.54179 32.5091 1.90295 31.1934 1.49985C29.6455 0.989164 28.0574 0.609241 26.4459 0.364083C24.7694 0.111566 23.0758 -0.00995013 21.3804 0.000636356C19.1596 0.00569304 16.9502 0.31913 14.8156 0.931968C12.6062 1.55491 10.5175 2.54553 8.63706 3.86225C6.75222 5.26198 5.20072 7.06172 4.09398 9.13223C2.84054 11.567 2.21585 14.2766 2.27675 17.0145C2.26172 19.0431 2.77863 21.0403 3.77596 22.8069C4.79433 24.7226 6.06231 26.4947 7.54672 28.0769C9.18931 29.8308 10.9501 31.4701 12.8167 32.9834C14.7929 34.5508 16.7692 36.1181 18.7908 37.5265C20.1765 38.5032 21.4713 39.5481 22.6979 40.5476C23.8257 41.4645 24.8883 42.4589 25.878 43.5233C26.7466 44.3918 27.5091 45.3602 28.1496 46.4082C28.6542 47.2054 28.9365 48.1229 28.9673 49.0659C28.9701 49.584 28.8668 50.0972 28.6636 50.5738C28.4605 51.0504 28.1618 51.4804 27.7861 51.8372C26.9579 52.5993 26.0052 53.2139 24.9694 53.6544C23.9014 54.1012 22.79 54.4361 21.653 54.6539C20.7752 54.9057 19.879 55.088 18.9726 55.199C18.0185 55.199 16.701 55.199 15.2472 54.9946C13.7352 54.8454 12.2474 54.5097 10.8177 53.9951C9.44083 53.4858 8.17571 52.7144 7.09241 51.7236C6.57442 51.2418 6.16784 50.6527 5.90105 49.9975C5.63426 49.3423 5.51369 48.6367 5.54777 47.9301C5.50389 46.7803 5.70521 45.6343 6.13837 44.5682C6.50181 43.7959 6.7744 43.1599 6.88797 42.8646C5.03568 43.1458 3.27639 43.862 1.75429 44.9544C1.17632 45.4325 0.717427 46.0385 0.413873 46.7245C0.110319 47.4104 -0.0295864 48.1576 0.00520854 48.9069C-0.0217709 50.6592 0.648215 52.3505 1.86787 53.609C3.22545 54.9387 4.82039 56.002 6.56996 56.7437C8.55315 57.6089 10.6485 58.1901 12.794 58.4701C14.9117 58.8163 17.0539 58.9911 19.1997 58.9925C21.2833 58.9875 23.3637 58.8281 25.4237 58.5155C27.4624 58.217 29.4547 57.6598 31.3525 56.8573C33.0337 56.0968 34.5353 54.9899 35.7592 53.609C36.9826 52.1504 37.6147 50.2863 37.531 48.3844C37.5482 46.5945 37.1599 44.8238 36.3953 43.2053C35.7437 41.517 34.7891 39.962 33.5786 38.6168V38.6168ZM86.1874 37.2085C85.9222 37.2185 85.664 37.2967 85.4378 37.4356C85.1652 37.5719 85.0062 37.9581 84.8472 38.5714C84.6882 39.1847 84.5292 40.2977 84.2112 41.7061C83.882 43.1215 83.4724 44.5169 82.9845 45.8857C82.5171 47.1687 81.9076 48.3954 81.1673 49.5429C80.955 49.9771 80.6345 50.3494 80.2367 50.6239C79.8388 50.8984 79.3771 51.0659 78.8958 51.1103C78.3733 51.1103 77.9417 50.7468 77.6237 50.0199C77.2719 49.1937 77.0055 48.3336 76.8287 47.4531C76.6697 46.5218 76.5561 45.5677 76.4425 44.6818C76.3289 43.7959 76.4425 43.1599 76.4425 42.7964C76.4368 38.6948 76.9636 34.6097 78.0099 30.6437C78.0294 30.41 78.083 30.1804 78.1689 29.9622C78.1689 29.6442 78.4188 29.2354 78.5778 28.8038C78.7453 28.3959 78.8894 27.9787 79.0094 27.5544C79.1076 27.23 79.1611 26.8938 79.1684 26.5549C79.1574 26.2096 79.0403 25.8761 78.833 25.5997C78.6257 25.3233 78.3383 25.1175 78.0099 25.0103C77.1435 24.6175 76.2257 24.3498 75.284 24.2152C74.2618 24.0562 73.1942 23.9654 72.1947 23.8972C71.1953 23.8291 70.3775 23.8972 69.9232 23.7382H69.5143C69.1598 23.6958 68.8146 23.5961 68.4921 23.4429C68.3331 23.4429 68.2195 23.1249 68.2195 22.6933V22.1709V20.3082V19.8766C68.2195 18.6273 67.7425 18.0139 66.7203 18.0139C66.2554 18.0197 65.7918 18.0653 65.3347 18.1502C64.8209 18.2559 64.3241 18.4317 63.8582 18.6727C63.4254 18.8503 63.0374 19.1219 62.7224 19.4677C62.5928 19.587 62.488 19.7306 62.4139 19.8904C62.3399 20.0502 62.298 20.2231 62.2908 20.3991L62.5634 25.4192C62.6732 26.1713 62.7264 26.9306 62.7224 27.6907V31.8249C62.7477 32.3092 62.7477 32.7944 62.7224 33.2787C62.7035 33.6116 62.7035 33.9453 62.7224 34.2782V34.7552C62.7224 35.8001 62.5634 37.0267 62.4498 38.2079C62.2615 39.8594 61.9732 41.4979 61.5867 43.1145C61.5521 43.3455 61.4989 43.5734 61.4276 43.7959C61.091 44.8057 60.6252 45.7677 60.042 46.6581C59.3531 47.6686 58.464 48.5268 57.4297 49.1795C56.1752 49.8558 54.7657 50.1925 53.341 50.1562C52.2725 50.2029 51.214 49.9343 50.2971 49.3839C49.5015 48.9002 48.8134 48.2585 48.2754 47.4985C47.7794 46.8484 47.3814 46.129 47.0942 45.3633C46.8782 44.8278 46.7552 44.2593 46.7308 43.6823V41.2291C47.1312 41.3546 47.5415 41.4458 47.9574 41.5017C48.3663 41.5017 48.7524 41.5017 49.025 41.5017C50.5794 41.5199 52.0965 41.0248 53.341 40.0933C54.6093 39.1624 55.6886 37.9983 56.5211 36.6633C57.407 35.2582 58.0735 33.7263 58.4974 32.1202C58.9541 30.6487 59.1914 29.1179 59.2015 27.5771L59.0652 26.6231C59.0193 25.664 58.7879 24.7228 58.3838 23.8518C57.9652 23.0053 57.4043 22.2369 56.7256 21.5803C56.0086 20.9062 55.1975 20.34 54.3177 19.8993C53.3968 19.4827 52.3982 19.266 51.3874 19.2633C49.3724 19.2134 47.4199 19.965 45.9585 21.3531C44.391 22.8202 43.1255 24.5795 42.2331 26.5322C41.2311 28.639 40.5131 30.8694 40.0979 33.1651C39.6469 35.3094 39.411 37.4933 39.3937 39.6844C39.3905 41.6328 39.6039 43.5756 40.0297 45.4769C40.4232 47.1841 41.1488 48.7972 42.165 50.2244C43.1805 51.5738 44.4944 52.67 46.0039 53.4272C47.7878 54.2557 49.7392 54.66 51.7055 54.6084C53.8312 54.653 55.9312 54.1358 57.7932 53.1092C59.4361 52.169 60.8546 50.8822 61.9501 49.3385C63.0351 47.8856 63.8435 46.2455 64.3352 44.5001C64.7002 43.2843 64.9511 42.0371 65.0848 40.7748C65.3574 39.5936 65.63 38.2761 65.8799 36.7541C66.1297 35.2322 66.3569 33.3696 66.6295 31.5523L66.9475 28.8265C67.0077 28.6149 67.1166 28.4205 67.2655 28.2586C67.6627 28.0025 68.1358 27.8902 68.6057 27.9406C69.034 27.9501 69.4603 28.0034 69.8778 28.0996C70.0765 28.1278 70.2571 28.2301 70.3835 28.386C70.5099 28.5419 70.5727 28.7398 70.5592 28.9401C70.5193 30.4598 70.398 31.9763 70.1958 33.4831C70.024 34.9915 69.933 36.5081 69.9232 38.0262C69.9232 39.321 69.9232 40.9338 70.1958 42.8646C70.3426 44.765 70.7163 46.641 71.3088 48.4526C71.8153 50.1296 72.675 51.6787 73.8302 52.9957C74.3779 53.6184 75.0578 54.1109 75.8203 54.4371C76.5827 54.7633 77.4084 54.915 78.237 54.881C79.0481 54.9003 79.8531 54.7367 80.5924 54.4024C81.3316 54.0682 81.9862 53.5719 82.5075 52.9502C83.6559 51.5971 84.5557 50.0513 85.1652 48.3844C85.783 46.8438 86.2471 45.246 86.5509 43.6142C86.7428 42.685 86.8718 41.744 86.937 40.7975C86.9726 40.4501 86.9726 40.1 86.937 39.7526C86.937 39.2983 86.937 38.9803 86.937 38.8667C87.4141 37.7309 87.0279 37.2085 86.1874 37.2085ZM47.5713 36.0273C47.6183 35.1804 47.7245 34.3379 47.8893 33.5058C48.118 32.1573 48.4755 30.8337 48.9569 29.5534C49.402 28.2525 50.0291 27.0212 50.8196 25.8962C51.0928 25.4251 51.4786 25.0291 51.9424 24.7437C52.4062 24.4583 52.9336 24.2923 53.4773 24.2607C53.768 24.2342 54.0601 24.2958 54.3153 24.4376C54.5706 24.5794 54.7772 24.7948 54.9083 25.0557C55.1549 25.5011 55.2875 26.0005 55.2945 26.5095V27.032C55.2733 28.0499 55.1438 29.0626 54.9083 30.0531C54.6914 31.3085 54.3333 32.5354 53.8407 33.7103C53.4067 34.8383 52.7588 35.8719 51.9326 36.7541C51.5576 37.1543 51.1034 37.472 50.5989 37.6871C50.0944 37.9022 49.5507 38.0099 49.0023 38.0035H48.5707C48.0483 38.0035 47.7303 37.8445 47.6621 37.5265C47.5538 37.1344 47.5003 36.7293 47.5031 36.3226V36.0273H47.5713ZM114.763 32.8925C114.374 33.0123 114.027 33.2409 113.764 33.5513C113.216 34.0215 112.509 34.2652 111.788 34.2327C111.419 34.1871 111.06 34.0876 110.72 33.9374C110.175 33.7103 109.925 33.5513 109.925 33.415C109.925 32.4155 109.925 31.4842 109.925 30.6437C109.925 29.8032 109.925 29.0309 109.811 28.3722C109.805 27.6085 109.721 26.8475 109.562 26.1006C109.38 25.3283 109.175 24.4878 108.903 23.6019C108.778 23.3201 108.693 23.0218 108.653 22.716C108.634 22.5489 108.575 22.3889 108.48 22.2502C108.385 22.1115 108.257 21.9985 108.108 21.921L107.472 21.7166C107.137 21.6201 106.795 21.5517 106.45 21.5121L105.405 21.3531C105.064 21.3531 104.859 21.2395 104.655 21.2395L104.223 21.3531L103.519 21.6711C103.296 21.7711 103.083 21.8928 102.883 22.0346C102.679 22.1481 102.565 22.239 102.565 22.2844C102.296 22.7204 102.097 23.1955 101.975 23.6928C101.817 24.3115 101.711 24.9421 101.657 25.5782C101.561 26.2024 101.508 26.8322 101.498 27.4636C101.498 28.0996 101.498 28.622 101.498 29.0763V30.8481C101.565 31.8536 101.835 32.835 102.293 33.733C102.69 34.4488 103.154 35.1256 103.678 35.7547C104.075 36.2335 104.5 36.6886 104.95 37.1176C105.108 37.2246 105.239 37.3661 105.333 37.5315C105.428 37.6968 105.483 37.8816 105.496 38.0716C105.496 38.7985 105.496 39.8434 105.337 41.2518C105.153 42.603 104.872 43.9391 104.496 45.2497C104.199 46.5388 103.701 47.773 103.02 48.9069C102.779 49.3706 102.418 49.7608 101.974 50.0366C101.53 50.3124 101.02 50.4636 100.498 50.4742C99.9732 50.4839 99.455 50.3545 98.9962 50.0992C98.5374 49.8439 98.1543 49.4717 97.8859 49.0205C97.197 47.9476 96.6975 46.7643 96.4093 45.5223C96.0719 44.1637 95.8365 42.7818 95.7052 41.3881C95.4099 40.0252 95.4099 38.9348 95.4099 38.1625C95.4099 36.1181 95.4099 34.0737 95.6825 32.0975C95.955 30.1213 96.0459 28.0769 96.3639 26.1006C96.3639 25.7372 96.4775 25.3056 96.5911 24.8513C96.7047 24.397 96.7501 23.8064 96.8637 23.2839C96.9772 22.7615 97.0227 22.239 97.0681 21.762C97.1135 21.285 97.0681 20.9215 97.0681 20.6035C97.0681 20.2855 96.9091 20.3082 96.5229 20.1946C96.1607 20.0763 95.788 19.9926 95.4099 19.9448C95.0122 19.8753 94.6096 19.8373 94.206 19.8312H93.3882C92.8132 19.8108 92.2385 19.8798 91.6846 20.0356C91.1297 20.2023 90.5585 20.309 89.9809 20.3536C89.0543 25.1746 88.5903 30.0731 88.5953 34.9823C88.5953 37.0495 88.5953 39.2528 88.8678 41.5471C89.0073 43.7322 89.4744 45.8839 90.2535 47.9301C90.9527 49.8091 92.1455 51.4648 93.7062 52.7231C95.577 54.0723 97.8545 54.7379 100.157 54.6084H101.021C101.3 54.629 101.581 54.629 101.861 54.6084C102.566 54.5501 103.251 54.339 103.867 53.9899C104.482 53.6408 105.015 53.1621 105.427 52.5868C106.488 51.2554 107.339 49.7692 107.949 48.18C108.602 46.4958 109.096 44.7543 109.425 42.9782C109.729 41.481 109.912 39.9617 109.97 38.4351V38.0262C110.606 38.0262 111.243 37.9126 111.879 37.7991C112.484 37.7124 113.078 37.56 113.65 37.3447C114.146 37.1345 114.571 36.7879 114.877 36.3453C115.227 35.7645 115.393 35.0914 115.354 34.4145C115.354 34.2555 115.354 34.0056 115.354 33.6194C115.354 33.2333 114.968 32.8925 114.695 32.8925H114.763ZM118.966 14.3113C120.039 14.9673 121.274 15.3133 122.532 15.3108H123.395C123.919 15.2214 124.436 15.0923 124.94 14.9247C125.378 14.7855 125.792 14.5785 126.167 14.3113C126.343 14.2122 126.489 14.0667 126.589 13.8906C126.69 13.7145 126.74 13.5144 126.734 13.3119C126.655 12.98 126.491 12.6745 126.257 12.426C125.939 12.0171 125.735 11.6991 125.621 11.5401C125.108 10.2079 124.144 9.09832 122.896 8.40533C121.844 7.85367 120.675 7.56527 119.488 7.56486C119.151 7.58825 118.817 7.64146 118.489 7.72387C117.957 7.84319 117.439 8.01831 116.944 8.24633C116.399 8.45076 115.876 8.72335 115.445 8.92779C115.013 9.13223 114.809 9.40481 114.809 9.70011C114.864 9.9204 114.973 10.1234 115.127 10.2907C115.315 10.5069 115.489 10.7345 115.649 10.9722C116.454 12.3483 117.595 13.4974 118.966 14.3113V14.3113ZM182.819 37.5265C182.649 37.5101 182.478 37.5419 182.325 37.6182C182.172 37.6945 182.044 37.8123 181.956 37.9581C181.719 38.4734 181.544 39.0147 181.433 39.5709C181.206 40.7748 180.888 41.9787 180.524 43.228C180.159 44.4448 179.616 45.6007 178.912 46.6581C178.223 47.6686 177.334 48.5268 176.299 49.1795C175.047 49.8608 173.636 50.1979 172.211 50.1562C171.142 50.2029 170.084 49.9343 169.167 49.3839C168.371 48.9002 167.683 48.2585 167.145 47.4985C166.649 46.8484 166.251 46.129 165.964 45.3633C165.759 44.8244 165.637 44.2577 165.6 43.6823V41.2291C166.001 41.3523 166.412 41.4434 166.827 41.5017C167.259 41.5017 167.622 41.5017 167.895 41.5017C169.449 41.5199 170.966 41.0248 172.211 40.0933C173.48 39.1569 174.566 37.9941 175.414 36.6633C176.292 35.2574 176.951 33.7253 177.367 32.1202C177.824 30.6487 178.061 29.1179 178.071 27.5771V26.3732C177.931 25.4861 177.631 24.6318 177.185 23.8518C176.767 23.0053 176.206 22.2369 175.527 21.5803C174.81 20.9062 173.999 20.34 173.119 19.8993C172.259 19.4835 171.325 19.244 170.371 19.1951C168.356 19.1453 166.403 19.8968 164.942 21.285C163.374 22.752 162.109 24.5114 161.216 26.4641C160.199 28.577 159.436 30.8036 158.945 33.097C158.483 35.2395 158.247 37.4245 158.241 39.6163C158.241 40.5022 158.241 41.3427 158.241 42.1831C158.055 42.0515 157.833 41.9801 157.605 41.9787H157.332C156.9 41.9787 156.537 42.3876 156.151 43.2735C155.745 44.2541 155.267 45.2032 154.72 46.1129C154.043 47.2124 153.191 48.1945 152.198 49.0205C150.959 49.9513 149.429 50.4103 147.882 50.3152H146.928C145.751 50.2716 144.612 49.8821 143.655 49.1954C142.697 48.5086 141.964 47.555 141.545 46.4536C140.474 43.7845 139.964 40.9237 140.046 38.0489C140.079 36.8548 140.185 35.6638 140.364 34.4826C140.594 32.9351 140.975 31.4136 141.499 29.9395C142.001 28.491 142.772 27.1501 143.771 25.9871C144.217 25.4353 144.787 24.9959 145.434 24.704C146.081 24.4121 146.787 24.2758 147.496 24.3061C147.93 24.2919 148.361 24.3789 148.755 24.5603C149.15 24.7417 149.496 25.0124 149.768 25.351C150.243 25.9909 150.625 26.6944 150.904 27.4408C151.153 28.2132 151.471 28.8946 151.744 29.5761C151.864 29.878 152.07 30.1379 152.337 30.3237C152.603 30.5095 152.919 30.6128 153.243 30.621C153.526 30.643 153.808 30.5604 154.034 30.3887C154.26 30.217 154.415 29.9682 154.47 29.6897C154.717 28.7489 154.824 27.7768 154.788 26.8048C154.788 25.3056 154.788 24.0562 154.788 23.1022C154.78 22.3397 154.704 21.5795 154.561 20.8307C154.561 20.3536 153.925 19.9902 153.062 19.6722C152.063 19.2765 151.001 19.0686 149.927 19.0589C147.626 19.0554 145.358 19.6088 143.317 20.6716C141.163 21.7303 139.241 23.2048 137.661 25.0103C135.882 26.9371 134.616 29.2806 133.981 31.8249C133.648 33.2546 133.406 34.7036 133.254 36.1636C133.035 36.3981 132.885 36.6892 132.822 37.004L132.663 37.8445C132.391 39.1847 132.073 40.5022 131.709 41.7515C131.395 42.8894 130.888 43.965 130.21 44.9317C129.824 45.4087 129.347 45.9312 128.779 46.5672C128.065 47.2107 127.126 47.5456 126.167 47.4985C125.831 47.5033 125.497 47.4416 125.185 47.3168C124.873 47.1921 124.589 47.0068 124.349 46.7716C123.855 46.2392 123.504 45.5907 123.327 44.8863C123.117 44.0456 122.995 43.1853 122.964 42.3194C122.964 41.3881 122.85 40.5022 122.85 39.5709V34.4599C122.85 33.4604 122.964 32.6199 123.009 31.9385C123.055 31.257 123.123 30.7346 123.168 30.2803C123.214 29.826 123.282 29.4398 123.327 29.0763C123.373 28.7129 123.441 28.2813 123.486 27.827C123.62 27.0363 123.873 26.2705 124.236 25.5555C124.508 25.1012 124.622 24.7831 124.554 24.6241C124.567 24.3166 124.5 24.0109 124.361 23.7365C124.222 23.462 124.014 23.2279 123.759 23.0568C123.192 22.6787 122.561 22.4091 121.896 22.2617C121.244 22.1239 120.584 22.0253 119.92 21.9664C119.511 21.9423 119.102 21.9423 118.693 21.9664C118.194 21.9341 117.693 21.9341 117.194 21.9664C116.861 22.0208 116.539 22.1281 116.24 22.2844C115.967 22.4434 115.808 22.6025 115.808 22.8523C115.836 23.0575 115.914 23.2527 116.035 23.4202C116.191 23.6627 116.299 23.9325 116.353 24.2152C116.46 24.6937 116.528 25.1798 116.558 25.669C116.558 26.1915 116.558 26.6685 116.558 27.1228V36.4361C116.558 37.7309 116.558 38.8212 116.558 39.7071C116.558 40.5931 116.558 41.2745 116.558 41.7515C116.567 43.3664 116.835 44.9694 117.353 46.4991C117.891 48.117 118.965 49.5032 120.397 50.4288C121.7 51.3185 123.227 51.8224 124.804 51.8826C126.408 51.925 127.989 51.4902 129.347 50.6333C130.598 49.8096 131.671 48.7437 132.504 47.4985C132.995 46.7174 133.421 45.8969 133.776 45.0453C134.253 46.6844 135.022 48.2236 136.048 49.5883C136.98 50.8092 138.155 51.8226 139.5 52.5641C140.782 53.2804 142.197 53.7286 143.657 53.8816C143.922 53.9001 144.188 53.9001 144.452 53.8816H145.384C148.076 53.937 150.723 53.194 152.993 51.7463C155.41 49.9774 157.264 47.5478 158.332 44.75C158.332 44.5001 158.491 44.2275 158.581 43.9776C158.581 44.3411 158.763 44.7045 158.809 45.0226C159.182 46.7366 159.909 48.3537 160.944 49.7701C161.949 51.1237 163.266 52.2147 164.783 52.9502C166.564 53.7889 168.516 54.2011 170.484 54.1541C172.587 54.2967 174.689 53.8731 176.572 52.9275C178.22 51.9783 179.658 50.703 180.797 49.1795C181.816 47.6948 182.583 46.0525 183.069 44.3184C183.619 42.7926 183.933 41.1916 184 39.5709V39.003C184 38.0489 183.659 37.5265 182.819 37.5265ZM166.191 36.0273C166.238 35.1804 166.344 34.3379 166.509 33.5058C166.749 32.1596 167.106 30.8371 167.577 29.5534C168.022 28.2525 168.649 27.0212 169.439 25.8962C169.714 25.4264 170.1 25.0315 170.564 24.7463C171.027 24.4611 171.554 24.2943 172.097 24.2607C172.388 24.2309 172.682 24.2912 172.938 24.4334C173.193 24.5755 173.4 24.7927 173.528 25.0557C173.775 25.5011 173.907 26.0005 173.914 26.5095V27.032C173.887 28.0457 173.781 29.0559 173.596 30.0531C173.406 31.302 173.087 32.5277 172.642 33.7103C172.208 34.8437 171.552 35.8786 170.711 36.7541C170.338 37.1565 169.884 37.4758 169.379 37.691C168.875 37.9063 168.33 38.0128 167.781 38.0035H167.372C166.827 38.0035 166.555 37.8445 166.464 37.5265C166.4 37.1277 166.4 36.7213 166.464 36.3226V36.0273H166.191Z" fill="#221F1F"/>
<path d="M9.59102 117.984H0.00512695V62.0135H13.4299C24.1289 62.0135 29.5351 66.5566 29.5351 78.5049C29.5351 87.5911 26.0597 91.1574 22.7205 92.6112L30.8299 117.984H21.3122L14.4975 94.8146C12.8669 94.9714 11.229 95.0397 9.59102 95.019V117.984V117.984ZM9.59102 87.1368H12.9983C18.1774 87.1368 20.0855 85.206 20.0855 78.5731C20.0855 71.9402 18.1774 69.9867 12.9983 69.9867H9.59102V87.1368Z" fill="#221F1F"/>
<path d="M32.011 75.6249C32.011 67.7426 36.5541 61.4277 46.5034 61.4277C56.4528 61.4277 60.9958 67.8108 60.9958 75.6249V104.224C60.9958 112.038 56.4528 118.421 46.5034 118.421C36.5541 118.421 32.011 112.038 32.011 104.224V75.6249ZM41.4379 104.019C41.4379 108.153 42.6645 110.175 46.458 110.175C50.2515 110.175 51.4554 108.153 51.4554 104.019V75.8974C51.4554 71.7405 50.2515 69.7189 46.458 69.7189C42.6645 69.7189 41.4379 71.6951 41.4379 75.8974V104.019Z" fill="#221F1F"/>
<path fill-rule="evenodd" clip-rule="evenodd" d="M83.1678 80.7358V76.4199C83.1678 71.7405 80.8962 69.7189 78.4884 69.7189C74.6268 69.7189 73.4001 71.6951 73.4001 75.8974V104.019C73.4001 108.153 74.6268 110.175 78.4884 110.175C81.9866 110.175 83.1678 108.153 83.1678 104.542V97.7269H92.7537V104.11C92.7537 111.924 88.2106 118.307 78.4884 118.307C68.4255 118.307 63.7461 111.924 63.7461 104.11V75.6249C63.7461 67.7426 68.4255 61.4277 78.4884 61.4277C88.097 61.4277 92.7537 68.2424 92.7537 76.6243V80.7358H83.1678Z" fill="#221F1F"/>
<path fill-rule="evenodd" clip-rule="evenodd" d="M96.0007 117.986V61.9928H105.677V82.6865H105.837L115.99 61.9928H125.644L115.241 82.8455L127.007 117.986H117.171L109.289 91.909H109.13L105.677 98.133V117.986H96.0007Z" fill="#221F1F"/>
<path fill-rule="evenodd" clip-rule="evenodd" d="M128.006 117.986V61.9928H153.924V70.4202H137.66V84.7763H150.131V93.1583H137.66V109.627H154.992V117.986H128.006Z" fill="#221F1F"/>
<path fill-rule="evenodd" clip-rule="evenodd" d="M165.873 70.4202H156.991V61.9928H184V70.4202H175.118V117.986H165.873V70.4202Z" fill="#221F1F"/>
<path fill-rule="evenodd" clip-rule="evenodd" d="M176.686 73.5766H176.004V72.986H178.003V73.5766H177.322V76.9839H176.686V73.5766Z" fill="#221F1F"/>
<path fill-rule="evenodd" clip-rule="evenodd" d="M182.001 72.986V76.9839H181.365V73.8719H181.32L180.661 76.9839H180.32L179.639 73.8719V76.9839H179.003V72.986H179.979L180.479 75.3256L181.024 72.986H182.001Z" fill="#221F1F"/>
</svg>
